<?xml version="1.0" encoding="utf-8"?>
<!-- Generator: Adobe Illustrator 21.1.0, SVG Export Plug-In . SVG Version: 6.00 Build 0)  -->
<svg version="1.1" id="Layer_1" xmlns="http://www.w3.org/2000/svg" xmlns:xlink="http://www.w3.org/1999/xlink" x="0px" y="0px"
	 viewBox="0 0 38.8 18" style="enable-background:new 0 0 38.8 18;" xml:space="preserve">
<style type="text/css">
	.st0{fill:#FFFFFF;}
	.st1{fill:#67EAEC;}
</style>
<title>_OS Copy 2</title>
<desc>Created with Sketch.</desc>
<g>
	<path class="st0" d="M0,17.6v-1l5.1-7H0v-1h6.4v1l-5.1,7h5.1v1H0z"/>
	<path class="st1" d="M16.9,0c-1.7,0-3.1,0.4-4.2,1.3c-1.2,0.8-2,1.9-2.5,3.2C9.6,5.8,9.4,7.3,9.4,9c0,1.7,0.3,3.2,0.8,4.5
		c0.5,1.3,1.4,2.4,2.5,3.2c1.2,0.8,2.6,1.3,4.2,1.3c2.5,0,4.4-0.9,5.6-2.6c1.3-1.7,1.9-3.9,1.9-6.4c0-2.6-0.6-4.8-1.9-6.4
		C21.3,0.9,19.4,0,16.9,0z M22.8,9c0,1.3-0.2,2.5-0.6,3.6c-0.4,1.1-1,2-1.9,2.8c-0.9,0.7-2,1.1-3.3,1.1c-1,0-1.9-0.2-2.6-0.6
		c-0.8-0.4-1.4-1-1.8-1.7c-0.5-0.7-0.8-1.5-1-2.4c-0.2-0.9-0.3-1.8-0.3-2.7c0-1,0.1-1.9,0.3-2.7c0.2-0.9,0.6-1.7,1-2.4
		c0.5-0.7,1.1-1.3,1.8-1.7c0.8-0.4,1.6-0.6,2.6-0.6c1.3,0,2.4,0.4,3.3,1.1c0.9,0.7,1.6,1.7,1.9,2.8C22.6,6.5,22.8,7.7,22.8,9z"/>
	<path class="st1" d="M38.2,11.1c-0.4-0.6-0.8-1.1-1.4-1.4C36.3,9.3,35.7,9,35,8.8c-0.7-0.3-1.4-0.5-2-0.7c-0.7-0.2-1.3-0.5-1.8-0.8
		c-0.6-0.3-1-0.7-1.4-1.1c-0.3-0.5-0.5-1-0.5-1.7c0-1,0.3-1.8,1-2.3c0.7-0.5,1.6-0.8,2.6-0.8c2.4,0,3.7,0.9,3.8,2.7l0,0h1.6l0-0.1
		C38.1,1.4,36.3,0,32.8,0C31.3,0,30,0.4,29,1.2c-1,0.8-1.5,2-1.5,3.4c0,0.8,0.2,1.5,0.5,2.1c0.4,0.6,0.8,1.1,1.4,1.4
		c0.6,0.3,1.2,0.6,1.9,0.9c0.7,0.3,1.4,0.5,2,0.7c0.7,0.2,1.3,0.5,1.9,0.7c0.6,0.3,1,0.6,1.4,1.1c0.3,0.4,0.5,1,0.5,1.6
		c0,2.2-1.3,3.3-3.9,3.3c-2.6,0-4-1.2-4.3-3.4l0,0h-1.7l0,0.1c0.4,3.2,2.5,4.9,6.1,4.9c1.7,0,3-0.4,4-1.1c1-0.8,1.5-2,1.5-3.6
		C38.8,12.4,38.6,11.7,38.2,11.1z"/>
</g>
</svg>
