<?xml version="1.0" encoding="UTF-8"?>
<svg width="1225px" height="216px" viewBox="0 0 1225 216" version="1.1" xmlns="http://www.w3.org/2000/svg" xmlns:xlink="http://www.w3.org/1999/xlink">
    <!-- Generator: Sketch 51.3 (57544) - http://www.bohemiancoding.com/sketch -->
    <title>logo</title>
    <desc>Created with Sketch.</desc>
    <defs></defs>
    <g id="Page-1" stroke="none" stroke-width="1" fill="none" fill-rule="evenodd">
        <g id="logo" transform="translate(0.000000, -1.000000)" fill-rule="nonzero">
            <polygon id="Shape" fill="#FFFFFF" points="0 172.3 0 158.35 91.34 18.43 0 18.43 0 4.49 109 4.49 109 18.43 17.43 158.35 109 158.35 109 172.3"></polygon>
            <path d="M187.57,175.78 C175.95,175.78 166.11,172.68 158.05,166.48 C150.309626,160.731202 144.404095,152.859475 141.05,143.82 C137.707254,134.383184 136.055279,124.430708 136.17,114.42 C136.17,96.6 140.503333,81.7633333 149.17,69.91 C157.836667,58.0566667 170.543333,52.13 187.29,52.13 C222.156667,52.13 239.59,73.4366667 239.59,116.05 L239.59,117.21 L151.08,117.21 C151.386667,130.85 154.523333,141.89 160.49,150.33 C166.456667,158.77 176.023333,162.993333 189.19,163 C197.222865,163.153527 205.076233,160.615527 211.5,155.79 C217.593958,151.395501 221.756566,144.818437 223.12,137.43 L237.53,137.43 C235.056667,149.81 229.546667,159.303333 221,165.91 C212.453333,172.516667 201.31,175.806667 187.57,175.78 Z M151.57,105.36 L224.78,105.36 C224.78,92.8066667 221.643333,82.93 215.37,75.73 C209.096667,68.53 199.83,64.9266667 187.57,64.92 C176.103333,64.92 167.233333,68.8333333 160.96,76.66 C154.686667,84.4866667 151.546667,94.0533333 151.54,105.36 L151.57,105.36 Z" id="Shape" fill="#FFFFFF"></path>
            <path d="M275.19,216.92 L275.19,55.62 L288.9,55.62 L288.9,73.28 L289.36,73.28 C297.12,59.1866667 309.286667,52.1366667 325.86,52.13 C341.353333,52.13 353.476667,58.1733333 362.23,70.26 C370.983333,82.3466667 375.363333,96.5933333 375.37,113 C375.37,129.266667 370.953333,143.793333 362.12,156.58 C353.286667,169.366667 341.2,175.76 325.86,175.76 C317.646667,175.76 310.713333,174.016667 305.06,170.53 C299.406667,167.043333 294.176667,161.58 289.37,154.14 L288.91,154.14 L288.91,216.9 L275.19,216.92 Z M325.86,163 C337.326667,163 346.043333,157.886667 352.01,147.66 C358.029369,137.287515 361.135413,125.481785 361,113.49 C361.140786,101.682549 358.026929,90.0644009 352,79.91 C346,69.91 337.283333,64.91 325.85,64.91 C313.763333,64.91 304.43,69.83 297.85,79.67 C291.27,89.51 287.986667,100.953333 288,114 C288,127.013333 291.293333,138.44 297.88,148.28 C304.466667,158.12 313.793333,163.026667 325.86,163 Z" id="Shape" fill="#FFFFFF"></path>
            <path d="M409.3,216.92 L409.3,55.62 L423,55.62 L423,73.28 L423.46,73.28 C431.22,59.1866667 443.4,52.1366667 460,52.13 C475.493333,52.13 487.616667,58.1733333 496.37,70.26 C505.123333,82.3466667 509.493333,96.5933333 509.48,113 C509.48,129.266667 505.063333,143.793333 496.23,156.58 C487.396667,169.366667 475.32,175.766667 460,175.78 C451.786667,175.78 444.853333,174.036667 439.2,170.55 C433.546667,167.063333 428.316667,161.6 423.51,154.16 L423,154.16 L423,216.92 L409.3,216.92 Z M460,163 C471.466667,163 480.183333,157.886667 486.15,147.66 C492.155394,137.283549 495.247553,125.478066 495.1,113.49 C495.257745,101.683909 492.161209,90.0623838 486.15,79.9 C480.15,69.9 471.433333,64.9 460,64.9 C447.913333,64.9 438.58,69.82 432,79.66 C425.42,89.5 422.113333,100.946667 422.08,114 C422.08,127.013333 425.373333,138.44 431.96,148.28 C438.546667,158.12 447.893333,163.026667 460,163 Z" id="Shape" fill="#FFFFFF"></path>
            <path d="M589.89,175.78 C578.27,175.78 568.43,172.68 560.37,166.48 C552.629626,160.731202 546.724095,152.859475 543.37,143.82 C540.027254,134.383184 538.375279,124.430708 538.49,114.42 C538.49,96.6 542.823333,81.7633333 551.49,69.91 C560.156667,58.0566667 572.863333,52.13 589.61,52.13 C624.476667,52.13 641.91,73.4366667 641.91,116.05 L641.91,117.21 L553.4,117.21 C553.706667,130.85 556.843333,141.89 562.81,150.33 C568.776667,158.77 578.346667,162.993333 591.52,163 C599.552865,163.153527 607.406233,160.615527 613.83,155.79 C619.924725,151.396223 624.087547,144.818821 625.45,137.43 L639.86,137.43 C637.38,149.83 631.88,159.32 623.36,165.9 C614.84,172.48 603.683333,175.773333 589.89,175.78 Z M553.89,105.36 L627.1,105.36 C627.1,92.8066667 623.963333,82.93 617.69,75.73 C611.416667,68.53 602.15,64.9266667 589.89,64.92 C578.423333,64.92 569.553333,68.8333333 563.28,76.66 C557.006667,84.4866667 553.87,94.0533333 553.87,105.36 L553.89,105.36 Z" id="Shape" fill="#FFFFFF"></path>
            <polygon id="Shape" fill="#FFFFFF" points="679.61 172.3 679.61 4.49 693.09 4.49 693.09 172.3"></polygon>
            <path d="M734.23,24.24 L734.23,4.24 L752.36,4.24 L752.36,24.24 L734.23,24.24 Z M737.72,172.3 L737.72,55.62 L751.2,55.62 L751.2,172.3 L737.72,172.3 Z" id="Shape" fill="#FFFFFF"></path>
            <path d="M796.29,172.3 L796.29,55.62 L810,55.62 L810,72.82 L810.46,73.28 C817.586667,59.18 829.516667,52.13 846.25,52.13 C859.416667,52.13 869.416667,56.5466667 876.25,65.38 C883.083333,74.2133333 886.493333,85.5233333 886.48,99.31 L886.480039,172.31 L872.76,172.31 L872.76,97 C872.76,87.3933333 870.093333,79.6466667 864.76,73.76 C859.426667,67.8733333 852.093333,64.93 842.76,64.93 C832.38,64.93 824.323333,68.88 818.59,76.78 C812.856667,84.68 809.993333,94.13 810,105.13 L810,172.3 L796.29,172.3 Z" id="Shape" fill="#FFFFFF"></path>
            <path d="M1001.05,175.78 C984.93,175.78 971.216667,171.713333 959.91,163.58 C948.815207,155.725727 940.285514,144.771403 935.39,132.09 C930.356667,119.23 927.84,104.663333 927.84,88.39 C927.84,72.1166667 930.356667,57.55 935.39,44.69 C940.286559,32.0091889 948.816037,21.0551411 959.91,13.2 C971.223333,5.06666667 984.936667,1 1001.05,1 C1025.05,1 1043.29667,9.25 1055.79,25.75 C1068.28333,42.25 1074.52,63.13 1074.5,88.39 C1074.5,113.65 1068.26333,134.53 1055.79,151.03 C1043.31667,167.53 1025.07,175.78 1001.05,175.78 Z M1001.05,161.83 C1013.91,161.83 1024.83333,158.163333 1033.82,150.83 C1042.59302,143.774882 1049.19908,134.389147 1052.88,123.75 C1056.7106,112.370197 1058.59699,100.426443 1058.46,88.42 C1058.59661,76.4135847 1056.71023,64.4698945 1052.88,53.09 C1049.19977,42.4477158 1042.59375,33.0585799 1033.82,26 C1024.83333,18.6666667 1013.91,15 1001.05,15 C991.29,15 982.65,17.0933333 975.13,21.28 C967.805837,25.2899483 961.614073,31.0861278 957.13,38.13 C952.563323,45.3232097 949.145643,53.1842122 947,61.43 C944.713923,70.2464219 943.581139,79.3221432 943.63,88.43 C943.580801,97.5378769 944.71359,106.613642 947,115.43 C949.132148,123.695915 952.543326,131.577727 957.11,138.79 C961.592728,145.834988 967.784813,151.631467 975.11,155.64 C982.643333,159.773333 991.29,161.84 1001.05,161.84 L1001.05,161.83 Z" id="Shape" fill="#67EAEC"></path>
            <path d="M1170.72,175.78 C1135.08,175.78 1115.32333,160.053333 1111.45,128.6 L1127.26,128.6 C1130.36,151.226667 1144.61667,162.536667 1170.03,162.53 C1195.44333,162.523333 1208.15,151.523333 1208.15,129.53 C1208.2763,123.871688 1206.47428,118.338682 1203.04,113.84 C1199.48497,109.307464 1194.90658,105.681762 1189.68,103.26 C1183.79613,100.473589 1177.7405,98.0653652 1171.55,96.05 C1164.96333,93.8833333 1158.37667,91.52 1151.79,88.96 C1145.50068,86.5511137 1139.43421,83.596512 1133.66,80.13 C1128.11786,76.761399 1123.51839,72.0449703 1120.29,66.42 C1116.88333,60.6066667 1115.18,53.75 1115.18,45.85 C1115.18,31.4366667 1120.06,20.3566667 1129.82,12.61 C1139.58,4.86333333 1151.91333,0.99 1166.82,0.99 C1200.28667,0.99 1218.10667,14.3233333 1220.28,40.99 L1205.41,40.99 C1203.70333,22.99 1191.07333,13.99 1167.52,13.99 C1156.98,13.99 1148.31333,16.47 1141.52,21.43 C1134.72667,26.39 1131.31667,33.9833333 1131.29,44.21 C1131.15021,50.1198358 1132.94452,55.9136071 1136.4,60.71 C1139.9024,65.4395794 1144.48249,69.2654601 1149.76,71.87 C1155.61842,74.8095595 1161.67676,77.3324794 1167.89,79.42 C1174.47667,81.6666667 1181.06333,84.07 1187.65,86.63 C1193.93802,89.0418749 1200.00423,91.9963522 1205.78,95.46 C1211.31631,98.8326546 1215.91161,103.548346 1219.14,109.17 C1222.64591,115.365327 1224.41154,122.393303 1224.25,129.51 C1224.25,145.63 1219.44667,157.366667 1209.84,164.72 C1200.23333,172.073333 1187.19333,175.76 1170.72,175.78 Z" id="Shape" fill="#67EAEC"></path>
        </g>
    </g>
</svg>