<svg xmlns="http://www.w3.org/2000/svg" viewBox="444 3943 150.454 24.912">
  <defs>
    <style>
      .cls-1 {
        fill: #404041;
      }

      .cls-2 {
        fill: #5ab4e5;
      }
    </style>
  </defs>
  <g id="logo-zOS" transform="translate(1128.7 3435.6)">
    <g id="Group_287" data-name="Group 287" transform="translate(-684.7 507.4)">
      <path id="Path_238" data-name="Path 238" class="cls-1" d="M-684.7,537.351l7.819-10.662H-684.7V525.2h9.714v1.489l-7.751,10.662h7.751v1.489H-684.7Z" transform="translate(684.7 -519.175)"/>
      <path id="Path_239" data-name="Path 239" class="cls-1" d="M-644.8,531.211c0-3.893,1.9-7.311,5.991-7.311,4.569,0,6.126,3.148,6.126,7.48v.135h-10.391c.068,2.877,1.151,5.382,4.468,5.382a3.859,3.859,0,0,0,3.96-3.013h1.692c-.575,2.877-2.606,4.5-5.856,4.5C-643.108,538.421-644.8,534.731-644.8,531.211Zm10.357-1.049c0-2.843-1.422-4.739-4.366-4.739-2.809,0-4.231,2.234-4.231,4.739Z" transform="translate(658.305 -518.315)"/>
      <path id="Path_240" data-name="Path 240" class="cls-1" d="M-593.5,524.406h1.591v2.065h.068A4.506,4.506,0,0,1-587.577,524c3.825,0,5.788,3.588,5.788,7.142,0,3.486-1.963,7.345-5.788,7.345a4.657,4.657,0,0,1-4.265-2.539h-.068v7.345H-593.5Zm10.053,6.77c0-2.539-1.185-5.686-4.1-5.686-3.046,0-4.434,3.012-4.434,5.754s1.388,5.754,4.434,5.754C-584.6,536.964-583.447,533.714-583.447,531.176Z" transform="translate(624.369 -518.381)"/>
      <path id="Path_241" data-name="Path 241" class="cls-1" d="M-543.8,524.406h1.591v2.065h.068A4.506,4.506,0,0,1-537.877,524c3.825,0,5.788,3.588,5.788,7.142,0,3.486-1.963,7.345-5.788,7.345a4.657,4.657,0,0,1-4.265-2.539h-.068v7.345H-543.8Zm10.053,6.77c0-2.539-1.185-5.686-4.1-5.686-3.046,0-4.434,3.012-4.434,5.754s1.388,5.754,4.434,5.754C-534.932,536.964-533.747,533.714-533.747,531.176Z" transform="translate(591.492 -518.381)"/>
      <path id="Path_242" data-name="Path 242" class="cls-1" d="M-495.9,531.211c0-3.893,1.9-7.311,5.991-7.311,4.569,0,6.126,3.148,6.126,7.48v.135h-10.391c.068,2.877,1.151,5.382,4.468,5.382a3.859,3.859,0,0,0,3.96-3.013h1.692c-.575,2.877-2.606,4.5-5.856,4.5C-494.208,538.421-495.9,534.731-495.9,531.211Zm10.391-1.049c0-2.843-1.422-4.739-4.366-4.739-2.809,0-4.231,2.234-4.231,4.739Z" transform="translate(559.805 -518.315)"/>
      <path id="Path_243" data-name="Path 243" class="cls-1" d="M-443.8,507.5h1.591v19.666H-443.8Z" transform="translate(525.34 -507.466)"/>
      <path id="Path_244" data-name="Path 244" class="cls-1" d="M-421.7,507.4h2.132v2.335H-421.7Zm.406,6.025h1.591V527.1h-1.591Z" transform="translate(510.72 -507.4)"/>
      <path id="Path_245" data-name="Path 245" class="cls-1" d="M-397,524.472h1.591V526.5l.068.068a4.483,4.483,0,0,1,4.2-2.471c3.216,0,4.7,2.471,4.7,5.517v8.564h-1.591v-8.834a3.424,3.424,0,0,0-3.52-3.757c-2.572,0-3.825,2.336-3.825,4.7v7.887h-1.591V524.472Z" transform="translate(494.381 -518.447)"/>
      <path id="Path_246" data-name="Path 246" class="cls-2" d="M-321.4,531.243c0-3.757,2.268-7.243,6.228-7.243s6.228,3.486,6.228,7.243-2.3,7.244-6.228,7.244C-319.132,538.487-321.4,535-321.4,531.243Zm10.764,0c0-2.674-1.591-5.754-4.536-5.754s-4.536,3.08-4.536,5.754,1.591,5.754,4.536,5.754C-312.227,536.964-310.636,533.884-310.636,531.243Z" transform="translate(444.37 -518.381)"/>
      <path id="Path_247" data-name="Path 247" class="cls-2" d="M-272.1,533.985h1.625c0,2.572,1.929,3.114,4.2,3.114,1.692,0,3.216-.812,3.216-2.708,0-3.926-8.462-1.456-8.462-6.567,0-2.708,2.572-3.825,4.874-3.825,2.708,0,4.739,1.049,5.043,3.622H-263.2c-.3-1.625-1.625-2.234-3.419-2.234-1.455,0-3.148.575-3.148,2.3,0,3.351,8.462,1.354,8.462,6.431,0,3.283-2.539,4.366-5.382,4.366C-269.731,538.487-272.1,537.268-272.1,533.985Z" transform="translate(411.757 -518.381)"/>
    </g>
    <g id="z_os" transform="translate(-573.374 528.352)">
      <path id="XMLID_67_" class="cls-1" d="M-355.8,569.3h10.222v1.32H-355.8Z" transform="translate(355.8 -569.3)"/>
    </g>
  </g>
</svg>
